<?xml version="1.0" encoding="UTF-8" standalone="no"?><svg xmlns="http://www.w3.org/2000/svg" xmlns:xlink="http://www.w3.org/1999/xlink" fill="#ffffff" height="53.9" preserveAspectRatio="xMidYMid meet" version="1" viewBox="-2.3 5.0 68.2 53.9" width="68.2" zoomAndPan="magnify"><g id="change1_1"><path d="M59.9000015,5c-0.5,0-1.0999985,0.0999999-1.7000008,0.3000002c-17,6.0999994-31.2000008,20.7999992-37.4000015,37.5999985 c-3.7000008-4.4000015-8.1000004-7.9000015-13.6000004-10.7000008c-0.8000002-0.3999996-1.5-0.6000004-2.3000002-0.6000004 c-4.4000001,0-7.1999998,6.3000011-2.5,8.6000004c7.5999994,3.7999992,12.3000002,9,16.1000023,16.4000015 c0.7999992,1.5,2.5,2.2999992,4.1000004,2.2999992c2.1000004,0,4.1999989-1.2000008,4.6000004-3.4000015 c2.8999996-17.6000023,16.2000008-35.0999985,33.5-41.2999992C65.9000015,12.5,64.4000015,5,59.9000015,5z" fill="inherit"/></g></svg>